:SAMPLES-PER-SECOND 30
:FULLY-SPECIFIED
:DEGREES
135
root  34.97238159 36.52701491 -14.70843037 9.823399544 1.312871099 3.478763103
lowerback  -8.054549217 2.144190073 1.708399892
upperback  -4.105050087 2.356820107 -4.10766983
thorax  0.5078030229 0.9380699992 -5.02354002
lowerneck  -15.42920017 2.779390097 4.889760017
upperneck  15.9623003 1.526190042 4.217820168
head  7.488999844 1.308009982 0.7374180555
lclavicle  0 -4.497500157e-015 -2.743230041e-014
lhumerus  -44.13759995 25.00989914 69.27089691
lradius  -0.03794457391 -6.507048965e-006 27.64069748
lwrist  4.824992743e-007 -3.790274832e-007 -29.42379951
lhand  -4.406287275e-031 -36.73759842 -10.57499981
lfingers  90 7.125020027 -90
lthumb  94.71903742 -25.41831517 100.8863553
rclavicle  0 -4.497500157e-015 -2.743230041e-014
rhumerus  48.72170258 16.55060005 -54.83129883
rradius  -5.16745672e-007 2.214343908e-008 74.07820129
rwrist  -3.062178075e-005 0.01647847518 -176.2960052
rhand  -1.770298135e-031 4.191790104 -5.394219875
rfingers  -90 -7.125020027 -90
rthumb  -84.03392151 -10.36903666 -59.85938344
rfemur  -12.67366123 14.2724905 13.44024849
rtibia  -1.180664539 0.4384687543 21.1406517
rfoot  -0.6315200925 -19.1780777 -39.64365005
rtoes  4.033239797 19.6054349 -101.8673381
lfemur  -9.555921555 -18.10415268 -19.44516754
ltibia  2.862300396 0.9013261795 14.62200832
lfoot  0.7545741796 -27.11442566 34.06021881
ltoes  -8.59651324 -18.12693663 -115.9149292
136
root  34.97493173 36.52477715 -14.70746018 9.84076786 1.398461342 3.487791538
lowerback  -8.067251205 2.159499884 1.708790183
upperback  -4.103740215 2.377520084 -4.113430023
thorax  0.5184810162 0.9486629963 -5.027569771
lowerneck  -15.41429996 2.868109941 4.918819904
upperneck  15.89789963 1.633979917 4.276340008
head  7.465559959 1.365309954 0.7629180551
lclavicle  0 -4.497500157e-015 -2.743230041e-014
lhumerus  -44.13729858 24.97789955 69.30120087
lradius  -0.03885870054 -6.507048965e-006 27.6799984
lwrist  4.824992743e-007 -3.790274832e-007 -29.36289978
lhand  -4.422448222e-031 -37.01720047 -10.8270998
lfingers  90 7.125020027 -90
lthumb  94.90375899 -25.65577775 101.2085638
rclavicle  0 -4.497500157e-015 -2.743230041e-014
rhumerus  49.54840088 16.38199997 -54.71519852
rradius  -5.16745672e-007 2.214343908e-008 73.37169647
rwrist  -3.062178075e-005 0.0164188128 -175.9859924
rhand  -1.771150261e-031 4.552420139 -5.219560146
rfingers  -90 -7.125020027 -90
rthumb  -83.8494512 -10.53667546 -59.48931738
rfemur  -12.68266773 14.22421455 13.44504261
rtibia  -1.194404483 0.4382930994 21.14862251
rfoot  -0.644735992 -19.16056824 -39.68225479
rtoes  4.027376826 19.60659462 -101.8498654
lfemur  -9.610447884 -18.16410065 -19.43199348
ltibia  2.854022741 0.8971238732 14.6742487
lfoot  0.7653254271 -27.12859154 34.02801514
ltoes  -8.584923341 -18.13228411 -115.8776827
137
root  34.97626838 36.52262951 -14.70658009 9.853922844 1.481510282 3.492871761
lowerback  -8.076130867 2.168879986 1.706580639
upperback  -4.103279591 2.389709949 -4.124579906
thorax  0.5229719877 0.9545019865 -5.036729813
lowerneck  -15.39820004 2.987669945 5.094490051
upperneck  15.84309959 1.783610225 4.168900013
head  7.448299885 1.437469959 0.7151769996
lclavicle  0 -4.497500157e-015 -2.743230041e-014
lhumerus  -44.09999847 24.8817997 69.34719849
lradius  -0.03977779672 -6.507048965e-006 27.67709732
lwrist  4.824992743e-007 -3.790274832e-007 -29.31940079
lhand  -4.434992872e-031 -37.23160172 -10.94869995
lfingers  90 7.125020027 -90
lthumb  95.0316507 -25.76711055 101.4495838
rclavicle  0 -4.497500157e-015 -2.743230041e-014
rhumerus  50.30540085 16.27409935 -54.52930069
rradius  -5.16745672e-007 2.214343908e-008 72.80740356
rwrist  -3.062178075e-005 0.01635915041 -175.5899963
rhand  -1.771105726e-031 4.534289837 -5.235429764
rfingers  -90 -7.125020027 -90
rthumb  -83.86245778 -10.52215557 -59.50860672
rfemur  -12.68404388 14.13062096 13.44995213
rtibia  -1.200172544 0.4213805795 21.15312386
rfoot  -0.6564686894 -19.19351387 -39.68335342
rtoes  4.018244371 19.60839754 -101.8226511
lfemur  -9.62216568 -18.19839478 -19.42522621
ltibia  2.868869543 0.9305097461 14.6650095
lfoot  0.7891176343 -27.19405937 34.03470612
ltoes  -8.566979469 -18.1405455 -115.8200374
138
root  34.97643658 36.52280372 -14.705691 9.880587578 1.570213914 3.510797501
lowerback  -8.07750988 2.178519726 1.74247992
upperback  -4.103189945 2.40034008 -4.139910221
thorax  0.5268110037 0.9593690038 -5.072309971
lowerneck  -15.46850014 3.135279894 5.383160114
upperneck  15.94699955 1.949779987 3.948549986
head  7.50165987 1.518180013 0.6173170805
lclavicle  0 -4.497500157e-015 -2.743230041e-014
lhumerus  -44.04529953 24.85040092 69.35340118
lradius  -0.04070181772 -6.507048965e-006 27.62330246
lwrist  4.824992743e-007 -3.790274832e-007 -29.32480049
lhand  -0 -37.24530029 -10.83619976
lfingers  90 7.125020027 -90
lthumb  95.01339402 -25.65637067 101.4536004
rclavicle  0 -4.497500157e-015 -2.743230041e-014
rhumerus  51.03699493 16.08849907 -54.46760178
rradius  -5.16745672e-007 2.214343908e-008 72.14730072
rwrist  -3.062178075e-005 0.01629948802 -175.7420044
rhand  -1.770738284e-031 4.381810188 -5.056729794
rfingers  -90 -7.125020027 -90
rthumb  -83.81095146 -10.66927669 -59.64132858
rfemur  -12.70411205 14.07347298 13.45527458
rtibia  -1.212552071 0.4228207469 21.17970085
rfoot  -0.6831288934 -19.18540764 -39.72649002
rtoes  4.009110568 19.61019644 -101.7954351
lfemur  -9.636890411 -18.18356895 -19.43697739
ltibia  2.898438692 0.9664394855 14.63180447
lfoot  0.789907217 -27.25172234 33.956707
ltoes  -8.557615147 -18.14484829 -115.7899642
139
root  34.97611819 36.5236838 -14.70469678 9.907679558 1.675661325 3.537778854
lowerback  -8.082539558 2.19114995 1.788810253
upperback  -4.103235245 2.414499998 -4.155580044
thorax  0.530316174 0.9660480022 -5.113770008
lowerneck  -15.4854002 3.26741004 5.580420017
upperneck  15.9762001 2.096349716 3.862879992
head  7.519340038 1.593219995 0.5745029449
lclavicle  0 -4.497500157e-015 -2.743230041e-014
lhumerus  -44.00650024 24.8220005 69.35510254
lradius  -0.04163073003 -6.507048965e-006 27.59320068
lwrist  4.824992743e-007 -3.790274832e-007 -29.3416996
lhand  -4.411182526e-031 -36.8227005 -10.63710022
lfingers  90 7.125020027 -90
lthumb  94.77182066 -25.4763274 100.9828883
rclavicle  0 -4.497500157e-015 -2.743230041e-014
rhumerus  51.76050568 16.03770065 -54.28879929
rradius  -5.16745672e-007 2.214343908e-008 71.53230286
rwrist  -3.062178075e-005 0.01623982936 -174.8639984
rhand  -0 4.759829998 -5.176459789
rfingers  -90 -7.125020027 -90
rthumb  -83.77184752 -10.58332966 -59.28168214
rfemur  -12.7449894 14.00127125 13.45825481
rtibia  -1.237597585 0.4411036968 21.24663925
rfoot  -0.716448307 -19.14435387 -39.74986267
rtoes  3.994075507 19.61314827 -101.7506404
lfemur  -9.641907692 -18.24911118 -19.46320152
ltibia  2.936739206 0.9717755318 14.58345795
lfoot  0.7891990542 -27.23278809 33.92378998
ltoes  -8.577021336 -18.13592487 -115.8522941
140
root  34.97568566 36.52562419 -14.70377915 9.94655323 1.778031707 3.548597813
lowerback  -8.062529564 2.208509922 1.806439996
upperback  -4.103179932 2.437530041 -4.168889999
thorax  0.5325594544 0.9775999784 -5.136209965
lowerneck  -15.48729992 3.374569893 5.642459869
upperneck  15.94390011 2.213419676 3.935319901
head  7.510590076 1.658439994 0.6010310054
lclavicle  0 -4.497500157e-015 -2.743230041e-014
lhumerus  -43.96530151 24.73970032 69.40319824
lradius  -0.0425644815 -6.507048965e-006 27.57019997
lwrist  4.824992743e-007 -3.790274832e-007 -29.30170059
lhand  -0 -36.7181015 -10.67800045
lfingers  90 7.125020027 -90
lthumb  94.73144102 -25.52013213 100.8747372
rclavicle  0 -4.497500157e-015 -2.743230041e-014
rhumerus  52.45190048 15.87380028 -54.24169922
rradius  -5.16745672e-007 2.214343908e-008 70.86499786
rwrist  -3.062178075e-005 0.0161801707 -174.6519928
rhand  -1.771977984e-031 4.877009869 -5.090240002
rfingers  -90 -7.125020027 -90
rthumb  -83.69550136 -10.662709 -59.15837946
rfemur  -12.7969799 13.97420502 13.45613575
rtibia  -1.25584209 0.4790315628 21.30204773
rfoot  -0.7337836623 -19.06767654 -39.7739296
rtoes  4.013553378 19.60932197 -101.808673
lfemur  -9.681966782 -18.33031464 -19.45395088
ltibia  2.950318098 0.9812563062 14.57087898
lfoot  0.7881588936 -27.2308445 33.90263748
ltoes  -8.585862093 -18.13185131 -115.8806992
141
root  34.97399157 36.52666948 -14.70289606 9.97273922 1.884354711 3.587636471
lowerback  -8.054969788 2.2323699 1.882139683
upperback  -4.102950096 2.465490103 -4.184629917
thorax  0.5313509703 0.9911339879 -5.193580151
lowerneck  -15.48729992 3.45126009 5.683700085
upperneck  15.89929962 2.30148983 3.981559992
head  7.49698019 1.706349969 0.6189169884
lclavicle  0 -4.497500157e-015 -2.743230041e-014
lhumerus  -43.92739868 24.7310009 69.39910126
lradius  -0.04350304976 -6.507048965e-006 27.53390121
lwrist  4.824992743e-007 -3.790274832e-007 -29.31040001
lhand  -0 -36.74980164 -10.67959976
lfingers  90 7.125020027 -90
lthumb  94.74662508 -25.52065177 100.908754
rclavicle  0 -4.497500157e-015 -2.743230041e-014
rhumerus  53.16350174 15.69689941 -54.1332016
rradius  -5.16745672e-007 2.214343908e-008 70.23239899
rwrist  -3.062178075e-005 0.01612051204 -174.6880035
rhand  -1.772290075e-031 4.993859768 -5.817249775
rfingers  -90 -7.125020027 -90
rthumb  -84.04370818 -10.04436399 -59.11200053
rfemur  -12.82865524 13.91693687 13.44218636
rtibia  -1.287367702 0.4736411572 21.35865593
rfoot  -0.7709872127 -19.05247879 -39.82280731
rtoes  4.018955064 19.60825739 -101.8247688
lfemur  -9.668720245 -18.36549377 -19.50512123
ltibia  3.011321783 0.9945681095 14.50376797
lfoot  0.8001086712 -27.22889137 33.85364914
ltoes  -8.641670452 -18.10601537 -116.0601526
